<svg xmlns="http://www.w3.org/2000/svg" viewBox="0 0 900 350"><path opacity=".1" fill-rule="evenodd" clip-rule="evenodd" fill="#2b2b2b" d="M285.473 244.096l28.249-3.659 12.418-4.237 17.526 5.824 48.066-10.755-65.592-15.802z"/><path fill-rule="evenodd" clip-rule="evenodd" fill="#c4c4c4" d="M109.174 64.274V182.78h6.387l-.71-121.345zM97.465 64.274V182.78h6.387l-.71-121.345z"/><path fill-rule="evenodd" clip-rule="evenodd" fill="#e2e2e2" d="M338.292 175.75l-52.819 26.545-242.812-8.914L83.354 165.7l256.06 1.67z"/><path fill-rule="evenodd" clip-rule="evenodd" fill="#878787" d="M285.473 244.096l-242.812-5.433v-45.282l242.812 5.72 3.193 19.469z"/><path fill-rule="evenodd" clip-rule="evenodd" fill="#c4c4c4" d="M218.073 78.077v98.605l45.873 2.144 3.494-48.271-.645-52.478z"/><path fill-rule="evenodd" clip-rule="evenodd" fill="#848484" d="M263.946 178.826l14.813-5.148 2.129-46.84-2.129-50.596-11.964 1.835z"/><path fill-rule="evenodd" clip-rule="evenodd" fill="#b2b2b2" d="M278.759 173.678l41.527 2.072V80.861l-41.527-4.619z"/><path d="M308.932 137.364c-1.064.355-30.173-1.774-30.173-1.774l-3.179 1.814 3.179 4.395 31.238 1.597-1.065-6.032zM306.271 146.944l-27.512-.887-2.292 2.307 2.292 3.193 28.931 1.489z" fill-rule="evenodd" clip-rule="evenodd" fill="#777"/><path fill-rule="evenodd" clip-rule="evenodd" fill="#686868" d="M285.473 199.101v44.995l43.861-17.053 8.958-51.293z"/><path fill-rule="evenodd" clip-rule="evenodd" fill="#9b9b9b" d="M127.89 106.628l71.307 2.706.262 46.569-72.633-1.793z"/><path fill-rule="evenodd" clip-rule="evenodd" fill="#fff" d="M133.745 113.352l57.635 3.673-1.065 32.526-54.974-3.494z"/><path fill="none" stroke="#b2b2b2" stroke-miterlimit="10" d="M169.403 135.613l-5.256 2.794"/><circle cx="162.174" cy="139.493" r="1.929" fill="none" stroke="#b2b2b2" stroke-miterlimit="10"/><path fill="none" stroke="#b2b2b2" stroke-miterlimit="10" d="M177.762 135.966l1.058 5.857"/><circle cx="179.288" cy="143.744" r="1.929" fill="none" stroke="#b2b2b2" stroke-miterlimit="10"/><path fill="none" stroke="#b2b2b2" stroke-miterlimit="10" d="M178.244 130.642l3.872-4.521"/><circle cx="183.31" cy="124.545" r="1.929" fill="none" stroke="#b2b2b2" stroke-miterlimit="10"/><g fill-rule="evenodd" clip-rule="evenodd"><path fill="#cda1b8" d="M179.914 128.724l2.329 10.769-4.058-1.419-5.646-7.687z"/><path fill="#8e75a1" d="M168.339 131.452l5.322-5.456 6.253 2.728-8.515 4.427 2.727 4.923-5.787-1.73z"/><path fill="#b89fcf" d="M168.339 131.452l3.06 1.699 2.727 4.923h4.059l-3.517-6.622-4.343-2.036z"/></g><path fill-rule="evenodd" clip-rule="evenodd" fill="#8e75a1" d="M236.196 115.987l23.95 1.065-.799 27.675-22.885-.532z"/><path fill-rule="evenodd" clip-rule="evenodd" fill="#ececeb" d="M240.454 122.64l14.37-.266v17.297l-14.37-.532z"/><path fill-rule="evenodd" clip-rule="evenodd" fill="#b3889d" d="M224.62 113.858l3.859.133-.399 10.911h-3.327zM224.886 130.889l3.194-.266.133 10.511-3.327-.266zM225.02 148.186l3.193-.266.266 11.576-3.593-.133z"/><path fill="none" stroke="#898989" stroke-miterlimit="10" d="M237.083 150.67l15.08.355M237.083 153.863l15.08.355M237.083 157.056l15.08.355M237.083 160.25l15.08.355M237.083 163.443l15.08.355"/><path fill-rule="evenodd" clip-rule="evenodd" fill="#b3889d" d="M203.598 109.468l4.258.133.266 5.056-4.391-.133zM203.864 117.983h4.258l.133 4.524h-4.391zM203.997 126.898l4.391-.133.133 4.789-4.391-.266zM204.263 135.413h4.125v4.657l-4.258-.266z"/><path fill-rule="evenodd" clip-rule="evenodd" fill="#636363" d="M272.52 207.927l2.661-.133-.532 29.272-2.795.399zM267.464 207.794l-.533 29.272h-2.661l.666-29.538zM259.88 207.661l-.533 29.139h-2.661l.666-29.671z"/><path fill-rule="evenodd" clip-rule="evenodd" fill="#c4c4c4" d="M172.596 203.27l61.471 1.331-1.064 30.602-58.81-1.596z"/><path fill-rule="evenodd" clip-rule="evenodd" fill="#9b9b9b" d="M227.415 208.593l2.128-1.73 1.73 1.996-2.661 2.262zM227.148 231.079l2.262-1.996 2.129 2.528-2.661 1.463z"/><path fill-rule="evenodd" clip-rule="evenodd" fill="#cda1b8" d="M238.059 204.867l8.382.133v3.46l-8.648-.267zM237.793 211.254l8.116.133.133 3.459-8.249-.266zM237.926 217.64l7.85.133v3.194l-7.983-.267z"/><path opacity=".1" fill-rule="evenodd" clip-rule="evenodd" fill="#2b2b2b" d="M133.73 185.073l-1.626.866 5.831 1.568 10.179-1.217-4.264-.76zM153.708 176.463l-3.065.675 9.326 3.476 7.19-1.003 2.244-1.625-2.244-.915zM169.403 182.933l-3.172.678 7.031 3.367 13.527-1.206-3.863-2.229zM186.789 179.005l-2.75.14 6.254 8.65 25.812-2.722 1.968-2.834zM257.86 190.135l-1.972 1.4 13.305 3.752 4.325-3.752 21.488-4.028-12.042-3.927z"/><g fill-rule="evenodd" clip-rule="evenodd"><path fill="#9b9b9b" d="M290.486 184.975l-.445 2.82-7.93-1.195-12.043 3.759-.612 2.952-10.183-1.388.193-2.164-1.606.376.319-2.342 4.486-2.361 7.889-.178 12.004-3.608.335-2.462 5.332-.617-.511 4.01z"/><path fill="#b2b2b2" d="M258.179 187.793l3.238-5.311 5.137 1.763 14.244-3.34.554-2.919 6.873.581-4.457 1.425 2.439 1.329 4.099-.873.18 4.527-7.522-1.395-13.93 4.03 1.034 2.749-10.602-.6 6.163-1.704-2.533-1.897z"/><path fill="#878787" d="M282.964 183.58l-.853 3.02 7.93 1.195.445-2.82zM270.068 190.359l-.612 2.952-10.183-1.388.193-2.164zM263.096 186.158l-.368 2.699 2.901-.802z"/></g><g fill-rule="evenodd" clip-rule="evenodd"><path fill="#bababa" d="M187.388 171.464l16.032-1.506 10.858 7.185-19.24 3.991z"/><path fill="#7a7a7a" d="M214.278 177.143l-19.24 1.862-2.295 2.918 1.896 4.091 19.639-3.815z"/><path fill="#a5a5a5" d="M187.388 171.464l-.599 7.541 7.85 7.009.399-7.009z"/><path fill="#878787" d="M201.358 176.344l6.254-.62-3.792-2.506-5.389.465z"/></g><g><path fill="#cecece" d="M166.231 172.696l-5.886-2.195-6.637 2.195 5.465 4.442 5.221-.675z"/><path fill="#8f8f8f" d="M163.166 172.696l-3.197-.535-1.762 1.49 3.155 1.62z"/><path fill="#8f8f8f" d="M153.708 172.696v3.767l5.465 2.531 2.381-.675 2.727.675 2.878-1.923-.928-4.375-1.837 3.092-5.221.675z"/><path fill="#737373" d="M159.173 176.463v2.531h5.108l.113-3.206z"/></g><g><path fill="#cecece" d="M182.672 179.145l-6.597-2.206-6.672 2.206 3.458 4.466 7.286-.678z"/><path fill="#8f8f8f" d="M178.912 179.145l-3.214-.538-2.837 2.007h4.798z"/><path fill="#8f8f8f" d="M169.403 179.145v3.788l3.458 2.544 4.43-.678 2.743.678 2.892-1.934-.254-4.398-2.525 3.109-7.286.679z"/><path fill="#737373" d="M172.861 182.933v2.544h7.173l.113-3.223z"/></g><g><path fill="#cecece" d="M144.509 182.239l-5.786-1.651-4.314 1.651 3.432 3.342 3.929-.508z"/><path fill="#8f8f8f" d="M140.846 182.239l-2.405-.403-1.326 1.122 2.793.38z"/><path fill="#8f8f8f" d="M134.409 182.239l-.679 2.834 4.111 1.905 1.792-.508 2.052.508 2.165-1.448.659-3.291-2.739 2.327-3.929.507z"/><path fill="#737373" d="M137.841 185.073v1.905h3.844l.085-2.412z"/></g><g><path opacity=".1" fill-rule="evenodd" clip-rule="evenodd" fill="#2b2b2b" d="M803.705 275.382l-4.248 1.866 12.847 6.963 23.521-5.233-6.41-2.435zM854.63 312.641l-4.968 2.483 17.031 6.387 13.128-7.407-3.977-.505zM184.712 332.891l-2.092 3.034 11.708 3.459 15.08-5.277-3.481-2.174h-12.736zM136.938 316.011l-9.669 7.196 15.789 13.738 39.562-10.223 6.453-10.711-29.338-5.411zM215.544 304.391l54.524-34.061 37.631 5.144-8.177 17.519-47.359 25.147zM299.707 319.825l-.185 9.296 53.805 14.654 59.223-25.014-67.675-14.902zM565.46 331.268l-5.5 13.305h-54.641l11.709-7.184z"/><path fill-rule="evenodd" clip-rule="evenodd" fill="#dddddc" d="M577.92 297.739l11.135 28.473 69.01-21.688-17.031-19.026z"/><path fill-rule="evenodd" clip-rule="evenodd" fill="#ececeb" d="M585.684 299.069l24.127 28.74 65.195-23.285-24.393-18.472-7.45-5.078z"/><path fill="none" stroke="#a3a3a3" stroke-miterlimit="10" d="M640.857 287.449l19.337 15.434M635.535 289.578l19.337 15.434M629.68 291.175l19.337 15.434"/><path fill="none" stroke="#999" stroke-width="3" stroke-miterlimit="10" d="M353.327 263.766l13.705-8.516 6.919 10.777-5.071 10.778M303.703 319.794l-13.576-.479-3.725 7.784-19.16-6.298"/><path fill="#704c5f" d="M316.738 308.205l31.666-12.24 31.135 10.644-29.804 20.49z"/><path fill="#92637c" d="M379.539 306.609l-30.602 8.515-32.199-6.919 1.33 12.774 30.603 7.185 29.804-9.314z"/><path fill="#828282" d="M352.396 315.39l23.684-30.07-6.653-3.725-20.49 28.739-26.079-23.151-4.79 5.322 27.409 23.151z"/><path fill="#b59dcd" d="M338.559 265.628l10.91-6.12 9.58 6.12-11.443 6.919z"/><path fill="#8e75a1" d="M338.559 265.628l-.267 14.104 10.112 5.588.636-7.441-1.434-6.396z"/><path fill="#765d89" d="M347.606 271.483l11.443-5.855-.532 13.306-10.113 6.386z"/><path fill="#afafaf" d="M352.396 315.39l-2.536-45.061h-3.673l-1.774 45.327zM316.738 308.205l-11.177 3.327 8.161-27.897 4.346 8.87zM379.539 306.609l-3.459-21.289 4.701-7.451 8.338 32.377z"/><path fill="#9e9e9e" d="M313.722 283.635l24.837-18.007-.267 14.104-20.224 12.773zM358.517 278.934l17.563 6.386 4.701-7.451-21.732-12.241z"/><path fill="#8e75a1" d="M316.738 308.205l-11.177 3.327-4.79 8.293 4.79 5.944 12.507-4.79 2.218-7.008zM379.539 306.609l-4.524 7.185 3.46 5.056 11.575 2.528 4.568-3.992-2.838-8.027z"/><path fill="#765d89" d="M320.286 313.971l-12.587 3.581-6.928 2.273 4.79 7.274 12.507-6.12zM375.015 313.794l12.788 2.222 5.928 1.37-3.193 6.342-12.063-4.878z"/><path fill="#8e75a1" d="M348.138 310.246l-7.433 3.11-1.291 12.634 9.626 9.625 6.416-11.177-.665-10.445z"/><path fill="#765d89" d="M348.138 310.246l.266 10.786.325 13.166 8.989-8.862-1.586-12.214z"/><path fill="#d1a1b8" d="M305.561 311.532l2.138 6.02-2.138 9.547-5.854-7.274zM339.414 325.99l8.99-4.958 9.314 4.304-8.914 11.875zM390.538 323.728l-2.735-7.712 3.977-6.657 3.903 8.027z"/><g><path fill="#afafaf" d="M301.91 254.407l-28.385-6.564-25.531 14.636-32.45 12.995 47.337 15.301 30.869-17.563z"/><path fill="#c4c4c4" d="M247.994 262.479l44.691 9.669-29.804 25.014-55.853-21.688z"/><path fill="#8f8f8f" d="M301.91 254.407l-9.225 17.741-29.804 22.885-2.129 5.765 2.129 5.855 34.417-27.143 9.58-13.749z"/><path fill="#737373" d="M207.028 275.474l4.761 13.927 51.092 17.252v-11.62z"/><path fill="#96637c" d="M256.479 284.744l-13.645-2.839 7.889 8.87zM220.836 275.474l12.596 2.528-5.234 4.886z"/><path fill="#fff" d="M220.836 275.474l-4.435 3.282 6.032 10.645 5.765-6.513zM242.834 281.905l-4.42 4.56 5.662 10.697 6.647-6.387z"/></g><g><path fill="#8f8f8f" d="M182.62 310.6v6.831l-9.403.709v7.983l-10.467 4.702-4.257-7.008-4.435-1.082-4.613 1.614-7.096 6.476-8.338-6.476-3.194-9.704h4.613l-1.597-12.116 28.03 1.33 6.742-7.007.598 9.391z"/><path fill="#737373" d="M150.509 316.821l-1.064 7.528 9.048-.532.177-6.996zM143.058 321.777l-.709 9.048-10.29-6.653-1.242-9.527zM172.153 310.6l1.064 7.54-5.499-5.211z"/><path fill="#afafaf" d="M162.573 322.735l.177 8.09 10.467-4.702v-7.983z"/><path fill="#cecece" d="M144.123 296.852l6.564 4.967 5.499-1.552 1.597-3.415h10.822l-3.194 4.967 5.145 2.04 9.048-.798 3.016 7.539h-10.467l-4.435 2.329 5.499 5.211-10.644 4.595-3.903-5.914h-8.161l-7.451 4.956-12.241-7.132 8.339-1.716 3.37-5.965-8.693-4.435z"/><path fill="#737373" d="M145.187 310.6l8.871-6.741 6.741 3.726-7.806 5.344z"/><path fill="#8f8f8f" d="M154.058 303.859l-1.065 9.07 10.999-5.344z"/></g><g><path fill="#cecece" d="M186.176 325.992l9.284-3.461 10.467 3.461-8.619 7.006-8.235-1.065z"/><path fill="#8f8f8f" d="M191.01 325.992l5.041-.844 2.78 2.35-5.855.799z"/><path fill="#8f8f8f" d="M205.927 325.992v5.941l-8.619 3.992-3.756-1.064-4.301 1.064-4.539-3.034 1.464-6.899 2.897 4.877 8.235 1.064z"/><path fill="#737373" d="M197.308 331.933v3.992h-8.057l-.178-5.056z"/></g><g><path fill="#cecece" d="M827.641 268.182l-11.251-4.195-12.685 4.195 10.444 8.49 9.981-1.29z"/><path fill="#8f8f8f" d="M821.782 268.182l-6.109-1.023-3.369 2.848 6.031 3.097z"/><path fill="#8f8f8f" d="M803.705 268.182v7.2l10.444 4.838 4.552-1.29 5.214 1.29 5.5-3.677-1.774-8.361-3.511 5.91-9.981 1.29z"/><path fill="#737373" d="M814.149 275.382v4.838h9.766l.215-6.128z"/></g><g><path fill="#cecece" d="M875.445 306.699l-10.348-3.461-10.467 3.461 5.425 7.006 11.428-1.064z"/><path fill="#8f8f8f" d="M869.546 306.699l-5.041-.844-4.45 3.149h7.525z"/><path fill="#8f8f8f" d="M854.63 306.699v5.942l5.425 3.991 6.949-1.064 4.302 1.064 4.538-3.033-.399-6.9-3.962 4.877-11.428 1.065z"/><path fill="#737373" d="M860.055 312.641v3.991h11.251l.177-5.056z"/></g><g><path fill="#cecece" d="M828.945 294.873l-9.076-2.59-6.769 2.59 5.386 5.243 6.162-.796z"/><path fill="#8f8f8f" d="M823.199 294.873l-3.773-.631-2.08 1.759 4.381.597z"/><path fill="#8f8f8f" d="M813.1 294.873l-1.064 4.447 6.45 2.987 2.81-.797 3.219.797 3.396-2.27 1.034-5.164-4.297 3.65-6.162.797z"/><path fill="#737373" d="M818.486 299.32v2.987h6.029l.133-3.784z"/></g><g fill-rule="evenodd" clip-rule="evenodd"><path fill="#9da1a2" d="M565.46 320.65l15.168-5.082 1.596 2.541-17.828 7.305z"/><path fill="#92637c" d="M578.579 316.254l3.645-6.541 8.25 3.46-3.327 7.477-7.355-1.636z"/><path fill="#b0889d" d="M582.224 309.713l4.923 10.937 6.52-8.276z"/><path fill="#8f8f8f" d="M517.028 325.946l26.256-10.593 22.176 5.297-19.16 14.876z"/><path fill="#636363" d="M565.46 320.65v10.618l-18.096 12.507-2.609-4.203 1.545-5.111z"/><path fill="#737373" d="M517.028 325.946l29.272 8.515 1.064 9.314-30.336-6.386z"/><path fill="#d1a1b8" d="M534.414 323.374l8.427-3.903 9.491 2.572-9.669 4.967z"/><path fill="#92637c" d="M552.332 322.043l.355 1.863-9.314 4.967-9.58-2.927.621-2.572 8.826 2.572z"/></g></g><g fill-rule="evenodd" clip-rule="evenodd" fill="#2b2b2b"><path opacity=".1" d="M428.326 271.66l-36.191 10.112 38.32 22.885 86.573 21.289 47.952-5.411.48 10.733 158.777-8.027 35.925-13.262 38.148 4.125 47.894-15.035-75.132-20.091-70.252-19.47zM88.24 253.831l112.771 19.273-118.476 35.9z"/></g><g><path fill="#734d60" d="M165.664 124.893l-73.485-3.495 31.892-12.117z"/><path fill-rule="evenodd" clip-rule="evenodd" fill="#d1a1b8" d="M120.837 102.774l-11.663 1.049-37.61 6.576 3.064 11.3 3.373 8.913 25.472-12.629z"/><path fill-rule="evenodd" clip-rule="evenodd" fill="#737373" d="M109.174 103.823L74.629 121.7l-7.322-12.964z"/><path d="M109.332 288.039s-10.635 2.064-18.885-4.353c-13.351-10.384-9.494-25.812-9.494-25.812l46.283-10.057-1.363 5.618c-.001 0 16.79 26.394-16.541 34.604z" fill="#543042"/><path d="M126.939 253.721c-.281 11.895-.89 29.372-17.607 34.318 0 0 17.31-5.243 33.885-10.831 5.973-2.719 13.687-16.96 11.169-29.39l-27.447 5.903z" fill="#734d60"/><path fill-rule="evenodd" clip-rule="evenodd" fill="#b3889d" d="M202.22 227.141l-6.208 14.953-111.895 32.098-1.582-21.065 57.186-14.72z"/><path fill-rule="evenodd" clip-rule="evenodd" fill="#d1a1b8" d="M81.571 174.748L196.5 208.859l-72.825 13.413-44.305-.042z"/><path fill-rule="evenodd" clip-rule="evenodd" fill="#96637c" d="M160.46 212.333l8.311 6.972-3.362 15.929-82.874 17.893-3.165-30.897z"/><path fill-rule="evenodd" clip-rule="evenodd" fill="#734d60" d="M162.335 221.011l-81.73 13.277.895 8.736 82.39-14.818z"/><path fill-rule="evenodd" clip-rule="evenodd" fill="#d1a1b8" d="M105.488 230.246l1.335 8.224 22.863-4.112-1.666-7.773z"/><path fill-rule="evenodd" clip-rule="evenodd" fill="#fff" d="M160.46 212.333l4.949 22.901 36.811-8.093-5.72-18.282z"/><path fill-rule="evenodd" clip-rule="evenodd" fill="#96637c" d="M78.001 130.612l42.836-27.838 49.366 5.46-4.539 16.659-44.781-11.301-42.882 47.762z"/></g><g fill-rule="evenodd" clip-rule="evenodd"><path fill="#c4c4c4" d="M343.666 242.024l-29.944-1.587-14.015-150.194 8.564-5.138 24.774-4.244 14.029 88.614z"/><path fill="#7c7c7c" d="M333.045 80.861l-33.338 9.382L76.886 55.281l1.42-27.642z"/><path fill="#9075a0" d="M316.738 122.343L209.674 99.696 81.815 96.275l-.519-50.7 232.426 40.724z"/><path fill="#785d88" d="M315.512 107.692l-97.943-18.411-135.16-16.905v4.425l134.627 16.126 98.949 20.425zM314.576 96.502L199.197 74.473 80.28 56.676l2.129 5.985 117.863 14.993 114.304 23.308z"/><path fill="#c4c4c4" d="M899.294 11.985l-17.401 232.146-512.244-13.452V57.976zM44.953 4.666l-29.094 4.08L0 327.764l40.696 11.62L51.34 162.502z"/><path fill="#9b9b9b" d="M369.649 57.976L44.953 4.666l-4.257 334.718 55.35-23.204L80.434 29.768l252.611 51.093 10.621 161.163 25.983-11.345z"/><path fill="#9075a0" d="M342.686 141.76l13.968-.626v26.178l-12.241 3.759z"/><path fill="#765d89" d="M347.074 146.057l6.209-1.33v9.491l-6.209 1.064z"/><path opacity=".1" fill="#2b2b2b" d="M390.943 231.079l-3.14-174.68-18.154 1.577v172.703z"/></g><g clip-rule="evenodd"><path fill-rule="evenodd" fill="#e5e5e5" d="M470.157 8.746l101.689 6.386 20.808 71.408-115.666 22.324-15.377-58.905zM434.23 34.519l13.597-11.403 11.899 11.403-14.359 11.056z"/><path fill-rule="evenodd" fill="#8e75a1" d="M495.289 29.768l12.676 9.048-12.676 12.081-10.16-10.564zM531.309 38.55l11.798-8.782 10.023 11.629-13.039 9.5zM509.258 70.161l11.407-7.47 10.644 9.388-12.241 10.645zM549.227 61.435l8.161-6.154 6.032 8.017-9.713 5.852z"/><path fill="none" stroke="#b0889d" stroke-width="3" stroke-miterlimit="10" d="M496.547 40.333l23.692 17.111 21.626-16.243 14.458 21.014M520.239 57.444v16.232"/></g><g><path fill-rule="evenodd" clip-rule="evenodd" fill="#f5cab3" d="M404.908 280.974l-3.767-7.983 13.081 3.991z"/><path fill-rule="evenodd" clip-rule="evenodd" fill="#ffe6d6" d="M426.595 262.878l-21.687 18.096 27.941 2.129 2.424-16.499z"/><path fill-rule="evenodd" clip-rule="evenodd" fill="#c4937d" d="M424.878 264.311l7.971 18.792 4.737-13.306-7.839-6.919z"/><path fill-rule="evenodd" clip-rule="evenodd" fill="#f5cab3" d="M423.442 299.069l-7.002-7.983 14.918 3.991z"/><path fill-rule="evenodd" clip-rule="evenodd" fill="#ffe6d6" d="M439.9 280.974l-16.458 18.095h34.155l-2.29-13.571z"/><path fill-rule="evenodd" clip-rule="evenodd" fill="#c4937d" d="M437.932 283.645l19.665 15.424-2.29-13.571-15.407-4.524z"/><path fill-rule="evenodd" clip-rule="evenodd" fill="#686868" d="M492.709 309.979l21.339-14.902-1.366-9.579-17.497.554-6.396 11.687zM682.724 312.958l-17.223-18.82v-13.164l18.288 4.524 2.661 13.571z"/><path fill-rule="evenodd" clip-rule="evenodd" fill="#8f8f8f" d="M455.307 285.498l2.276 23.111 35.126 1.37 2.476-23.927zM683.789 285.498l-1.065 27.46 38.32.215 3.193-28.962z"/><path fill-rule="evenodd" clip-rule="evenodd" fill="#734c5f" d="M464.209 151.557l-17.184 22.361-1.491 9.469 3.548 9.904 16.262-13.439 4.429-18.135z"/><path fill-rule="evenodd" clip-rule="evenodd" fill="#543042" d="M449.082 193.291l-39.746-20.048 2.15-8.203 7.798-5.544 27.741 14.422z"/><path fill-rule="evenodd" clip-rule="evenodd" fill="#ececeb" d="M492.709 210.186l27.424-42.874 163.602 8.197 28.261 43.061z"/><path fill-rule="evenodd" clip-rule="evenodd" fill="#b79fcf" d="M512.223 178.944l80.431-3.008 91.081-.427-11.655-32.113-3.725-38.819-66.002 10.459-80.358-5.681z"/><path fill-rule="evenodd" clip-rule="evenodd" fill="#9075a0" d="M512.223 178.944l73.106-16.442 98.406 13.007-25.67 7.878-84.755 3.917-60.628-.668z"/><path fill-rule="evenodd" clip-rule="evenodd" fill="#c4937d" d="M419.284 159.496l-4.79-12.525-1.925-3.575-6.753 11.559z"/><path fill-rule="evenodd" clip-rule="evenodd" fill="#785d88" d="M442.774 211.52l-18.529 2.306 7.097 16.321 9.757 10.29 8.107-8.433-1.543-10.195z"/><path fill-rule="evenodd" clip-rule="evenodd" fill="#594165" d="M424.245 213.826l-7.805 43.642 22.53 18.272 2.129-35.303z"/><path fill-rule="evenodd" clip-rule="evenodd" fill="#9075a0" d="M444.988 218.57l-14.474 5.153 18.692 30.108 6.101-2.395v-21.289z"/><path fill-rule="evenodd" clip-rule="evenodd" fill="#785d88" d="M430.514 223.723l2.335 59.38 22.458 2.395 2.29-9.758-2.29-24.304z"/><path fill-rule="evenodd" clip-rule="evenodd" fill="#f5cab3" d="M419.284 159.496l-12.403-8.798-2.129 18.777 4.584 3.768z"/><path fill-rule="evenodd" clip-rule="evenodd" fill="#96637c" d="M466.507 208.859l-23.733 2.661 12.533 39.916 25.442-23.418-3.951-11.176z"/><path fill-rule="evenodd" clip-rule="evenodd" fill="#ffe6d6" d="M411.654 147.561l2.84-.59 38.502-3.302 14.407 5.759.398-5.862 8.945-4.586-4.563-8.656 1.261-6.09-2.002-8.94 4.615-1.223 2.601-14.552-8.686-2.502-7.029 12.359-6.475-1.906 5.092-37.582-13.642-6.061-34.514 10.968-12.263-2.57 4.048 44.661z"/><path fill-rule="evenodd" clip-rule="evenodd" fill="#f5cab3" d="M406.12 94.146l14.653 6.428 8.974 17.516 3.58-21.588 9.447-10.158-14.048 4.066-9.442-.167-5.509-1.628z"/><path fill-rule="evenodd" clip-rule="evenodd" fill="#734c5f" d="M415.524 83.266l-9.404 10.88 13.164-3.903zM428.726 90.41l14.048-4.066-9.447 10.158z"/><path fill-rule="evenodd" clip-rule="evenodd" fill="#fff1e8" d="M419.284 90.243l4.158 28.833 6.305-.986-1.021-27.68z"/><path fill-rule="evenodd" clip-rule="evenodd" fill="#c4937d" d="M423.442 119.076l3.63 3.804 2.675-4.79zM422.668 129.621l17.232-1.361.148 2.601-16.606 1.359zM473.201 101.627l-5.798 7.654 6.3-1.991zM472.413 115.036l-6.311 1.521 7.342 7.677z"/><path fill-rule="evenodd" clip-rule="evenodd" fill="#f5cab3" d="M447.918 63.827l-5.144 22.517 9.28 52.832 6.785 1.027 5.37 11.354 13.347-9.757 7.852-11.56-12.995-15.204-6.311 1.521-3.159-7.181-6.475-1.906 5.092-37.582z"/><path fill-rule="evenodd" clip-rule="evenodd" fill="#474747" d="M391.732 69.768l9.409 2.457 12.35 4.017-1.519-15.37-6.697-13.168z"/><path fill-rule="evenodd" clip-rule="evenodd" fill="#858686" d="M405.275 47.704l56.336 2.255-6.08 9.343-8.21 5.733-33.83 11.207z"/><path fill-rule="evenodd" clip-rule="evenodd" fill="#6f7173" d="M447.321 65.035l12.875 5.38 6.764-2.719 4.499-5.035-9.848-12.702z"/><path fill-rule="evenodd" clip-rule="evenodd" fill="#474747" d="M460.196 70.415l-4.889 38.184 7.921 1.821 6.907-12.519 7.883 2.102-1.03 8.861 16.068-16.949-21.597-29.254z"/><path fill-rule="evenodd" clip-rule="evenodd" fill="#c4937d" d="M466.102 116.557l12.556 5.786-6.245-7.307zM414.494 146.971l37.559-7.795 9.802-1.812 2.354 14.193-12.473-6.482z"/><path fill-rule="evenodd" clip-rule="evenodd" fill="#b3889d" d="M485.408 130.24l-18.005 22.736-2.507 15.696 1.611 40.187 14.242 19.159 31.933-6.918-4.524-65.729z"/><path fill-rule="evenodd" clip-rule="evenodd" fill="#96637c" d="M471.316 178.565l23.869-4.3-1.065 5.854-22.804 3.268z"/><path fill-rule="evenodd" clip-rule="evenodd" fill="#fef1e7" d="M404.752 169.475l-6.209-18.45 10.805-14.408 5.146 10.354z"/><path fill-rule="evenodd" clip-rule="evenodd" fill="#ba9fce" d="M696.03 173.622l-229.523 35.237-2.298 17.119-8.902 25.458 78.915 14.636 195.87-21.289 1.064-14.636 6.387-16.232-5.677-7.274-7.558-5.572z"/><path fill-rule="evenodd" clip-rule="evenodd" fill="#a688ba" d="M466.507 208.859l14.242 19.159-25.442 23.418z"/><path fill-rule="evenodd" clip-rule="evenodd" fill="#9075a0" d="M480.749 228.018l-25.442 23.418 20.712-29.781 230.123-17.586 31.401 9.846-1.952 16.232-5.499 14.636-22.886-23.34-159.116 8.704z"/><path fill-rule="evenodd" clip-rule="evenodd" fill="#9075a0" d="M455.307 251.436v34.062l58.741 9.579 11.141-5.056h9.757l50.383 9.048 7.274-3.992 7.377.423 41.054-10.002 4.79-2.395 4.789 2.949 89.058 5.034-9.579-46.303-195.87 18.095z"/><path fill-rule="evenodd" clip-rule="evenodd" fill="#785d88" d="M514.048 295.077l20.174-32.199.724 27.143zM585.329 299.069l8.515-29.715 6.136 26.146zM641.034 285.498l3.581-32.818 5.998 33.372z"/><path opacity=".2" fill-rule="evenodd" clip-rule="evenodd" fill="#2b2b2b" d="M507.093 234.538l-3.858-5.721-8.05-5.094 6.923-9.897 2.041-10.746 13.057.989 1.097 21.909z"/><path fill-rule="evenodd" clip-rule="evenodd" fill="#734c5f" d="M502.108 174.686l2.591 36.035 9.349.799 10.875-1.863-6.62-43.267-10.5 3.617z"/><path fill-rule="evenodd" clip-rule="evenodd" fill="#96637c" d="M474.181 150.315l27.927 24.371 7.906-3.234 8.289-5.062-28.916-32.641z"/><path fill-rule="evenodd" clip-rule="evenodd" fill="#f5cab3" d="M504.699 210.721l-11.99 9.659 2.476 3.343 9.514-3.876 1.685-4.38z"/><path fill-rule="evenodd" clip-rule="evenodd" fill="#d8afc5" d="M489.387 133.749l-24.491 34.923-.687-17.115 21.199-21.317z"/><path fill-rule="evenodd" clip-rule="evenodd" fill="#ffe6d6" d="M504.699 210.721v9.126l9.349 1.43 12.338-3.471-1.463-8.149z"/><path fill-rule="evenodd" clip-rule="evenodd" fill="#f5cab3" d="M504.699 219.847l2.394 14.691 17.404-5.137 1.889-11.595z"/><path fill-rule="evenodd" clip-rule="evenodd" fill="#785d88" d="M707.206 221.443l25.987 10.492-3.101 12.848z"/><path d="M436.262 98.484c1.662.489 2.561 2.208 2.085 3.824-.476 1.615-2.176 2.619-3.838 2.13-1.615-.476-2.5-2.241-2.024-3.856.475-1.615 2.161-2.573 3.777-2.098zM417.015 101.847c1.615.475 2.527 2.148 2.052 3.764-.489 1.662-2.163 2.574-3.777 2.098-1.662-.489-2.574-2.162-2.084-3.824.475-1.616 2.147-2.527 3.809-2.038z" fill="#2b2b2b"/></g><g fill-rule="evenodd" clip-rule="evenodd"><path fill="#d1a1b8" d="M723.173 113.832l-28.665-7.205-12.316-1.173-15.257-5.758-26.178 20.789-6.464 8.896-8.87 3.282-26.004-3.668-19.589-.856-1.065 11.887 19.306 5.941 33.738 5.836 9.935-11.777 9.259-5.322 18.648-16.614 11.073-.417 9.421 6.56 26.641 7.987z"/><path fill="#96637c" d="M690.146 124.234l4.366-17.606-27.577-6.932 2.716 18.394zM651.003 134.703l-10.246-14.218-15.334 12.178 6.386 19.14zM598.07 145.967l1.348-16.972-23.669-3.339-4.967 9.225 3.193 6.919zM723.173 113.832l-14.725 28.5 18.583 11.885z"/><path fill="#d1a1b8" d="M831.212 128.26l13.804 13.502 4.353 6.364 13.776 11.37-13.052 19.633-18.171 25.206-9.225-16.444 9.574-16.82 6.038-9.225-3.247-5.259-5.799-3.542-12.692-12.349z"/><path fill="#96637c" d="M809.924 107.226l21.288 21.034-22.353 22.232z"/><path fill="#92637c" d="M725.967 66.89l-5.189-2.794-1.863 5.588 2.794 4.524 4.657-3.725.665-1.464z"/><path fill="#b3889d" d="M720.778 64.096l.931 10.112-4.923-4.524z"/><path fill="#785d88" d="M734.083 66.225l-8.116.665.399 3.593 7.717-.665z"/><path fill="#8e75a1" d="M742.332 60.238l-10.91 1.33.931 13.306 10.645-.267z"/><path fill="#92637c" d="M804.548 62.901l4.988-3.138 2.236 5.45-2.482 4.702-4.898-3.402-.763-1.416z"/><path fill="#b3889d" d="M809.536 59.763l-.246 10.152 4.606-4.846z"/><path fill="#785d88" d="M796.405 62.786l8.143.115-.156 3.612-7.744-.143z"/><path fill="#8e75a1" d="M787.77 57.369l10.976.591-.031 13.338-10.638.453z"/><path fill="#96637c" d="M739.671 45.575l25.369-22.814v26.237h-11.296z"/><path fill="#734d60" d="M765.04 22.761l23.595 17.031-13.09 6.141-12.722 1.771z"/><path fill="#ececeb" d="M723.173 113.832l20.357-16.164 45.105-2.881 21.289 12.439-43.642 8.229z"/><path fill="#a0a0a0" d="M739.671 45.575l3.859 52.093 21.51 6.642 1.242-32.259-3.459-24.347z"/><path fill="#828282" d="M765.04 104.31l23.595-9.523V39.792l-25.812 7.912z"/><path fill="#8f8f8f" d="M761.492 282.482l12.13 18.716 27.254-7.717-29.804-14.503-4.524-1.73z"/><path fill="#545454" d="M761.758 301.996l10.645 7.983 3.193-5.455-1.974-5.455-12.13-16.587-2.129 10.999z"/><path fill="#666767" d="M773.622 299.069l27.254-5.588v8.515l-28.473 7.983z"/><path fill="#8f8f8f" d="M751.735 279.466l-20.047 19.603 15.91 4.524 14.16-1.597-.266-19.514-5.173-3.504z"/><path fill="#666767" d="M731.688 299.069v7.451l28.474 3.459 1.596-7.983z"/><path fill="#d1a1b8" d="M765.04 230.679v22.001l-3.548 29.802-9.757-3.016-2.135-12.499 1.248-4.397-3.25-7.32-1.524-8.919-.282-7.557z"/><path fill="#b3889d" d="M765.04 230.679l-3.548 51.803 9.58-3.504 2.874-11.964-.324-4.444 2.962-6.54 2.845-11.842 1.489-13.509z"/><path fill="#96637c" d="M744.461 236.889l20.579-6.21 1.508 8.095-2.616 8.094-17.857-.536zM747.598 255.25l15.619 2.049 1.823 5.579-2.685 7.012-12.755-2.924z"/><path fill="#734d60" d="M765.04 230.679l18.273-2.661-3.884 16.17-15.497 2.68zM763.217 257.299l13.367-1.269-2.638 10.983-11.591 2.877z"/><path opacity=".2" fill="#2b2b2b" d="M746.075 246.332l30.509 9.698 6.729-28.012-38.852 6.52z"/><path fill="#848484" d="M795.554 209.657l-1.064 20.49-64.398 14.636 7.451-30.868z"/><path opacity=".2" fill="#2b2b2b" d="M737.543 213.915l56.947 16.232 1.064-20.49z"/><path fill="#a3a3a3" d="M723.173 113.832l86.751-6.606v107.487l-72.381-.798L724.237 201z"/><path fill="#a688ba" d="M737.188 128.26l57.124-4.026 1.065 64.721-57.125 1.276z"/><circle cx="754.219" cy="62.766" r="3.992" fill="#92637c"/><circle cx="754.219" cy="62.766" r="1.863" fill="#fff"/><circle cx="775.315" cy="62.219" r="8.767" fill="#92637c"/><circle cx="775.315" cy="62.219" r="4.243" fill="#fff"/><path fill="#704d60" d="M748.586 82.724l15.744 3.463 16.987-5.326v5.322l-16.778 5.318-15.953-3.854z"/><path fill="#fff" d="M742.332 133.994l10.29-.532.177 4.08-10.467.532zM742.332 140.558l10.29-.532.177 4.08-10.467.532zM742.332 147.654l10.29-.532.177 4.08-10.467.532zM742.332 154.749l10.29-.532.177 4.081-10.467.532zM768.056 131.865l20.934-1.419v3.193l-21.111 1.242z"/><path fill="#734d60" d="M831.922 206.464l-27.374-7.363 16.02-10.146 8.695 8.754z"/><path fill="#96637c" d="M829.263 153.046l15.751-11.286 18.131 17.736-24.836 2.35zM832.271 171.071l17.822 8.058-18.171 27.335-11.354-17.509z"/><path fill="#785d88" d="M785.043 151.803l-11.975-1.134v14.81l10.245 1.512 3.193-3.903-9.922-.586v-7.264h8.459z"/><path fill="#666767" d="M724.041 184.905l62.598-19.426 56.074 24.752-58.336 17.563z"/><path fill="#594165" d="M781.317 141.8l19.159-7.097 17.229 7.096-18.959 7.096z"/><path opacity=".2" fill="#2b2b2b" d="M743.635 178.824l-2.367 6.085 18.36 6.387 13.994-1.065 30.926 8.87 20.336-16.74-26.574-11.731-23.379 1.548z"/><path fill="#96637c" d="M789.596 145.17l10.18-3.371 9.083 3.371-10.113 3.725z"/><path fill="#785d88" d="M817.705 141.799l-5.933 19.171 3.075 7.973 5.189 5.322-6.14 12.371-15.15 6.305-16.364-7.369-4.733-10.886 8.99-12.84-5.322-20.046 17.429 6.031z"/><path fill="#8e75a1" d="M798.746 147.831l2.13 17.648-2.566 17.908.436 9.554-17.429-6.305-4.733-11.95 10.055-12.84-5.322-20.046z"/><path fill="#8e75a1" d="M811.772 160.97l-10.896 4.509-2.034 8.828-.532 9.08 21.726-9.122z"/><path fill="#b59fd0" d="M800.876 165.479l-14.237-3.633-10.055 12.84 21.726 8.701z"/><path fill="#704c5f" d="M741.268 173.243l17.297-5.873 16.366 4.808-16.898 7.808z"/><path fill="#ececeb" d="M748.375 176.101l5.134-3.484 2.927 1.742 2.661-2.844 2.573 1.863 5.233-.761 2.861 1.948-11.731 5.421z"/><path fill="#b7b7b7" d="M753.968 178.351l2.468-3.992 3.282 1.391 1.952-2.372 3.618 3.256-7.255 3.352z"/><path fill="#d1a1b8" d="M741.268 173.243l3.592 8.473 13.239 5.588 1.529-4.657-1.595-3.725z"/><path fill="#96637c" d="M774.931 172.178l-3.061 9.005-13.771 6.121-.066-8.382z"/><path fill="#734d60" d="M575.749 125.656l-16.144-3.313-1.641 16.175 6.786 5.943 9.225-2.661z"/><path fill="#96637c" d="M575.749 125.656l-6.032-10.62-10.112 7.307 5.5 8.99z"/><path fill="#b0889d" d="M552.509 122.343h14.015l-1.419 8.99h-12.596zM552.509 137.364l12.951-1.22-.71 8.317-12.241.177z"/><path fill="#785d88" d="M559.605 122.343l-12.241.652v-6.742h12.241zM546.123 131.011l13.127.322-.266 5.421-12.861 1.497z"/><path fill="#594165" d="M512.682 110.42l19.958-7.295 17.205 8.199-20.044 7.365z"/><path fill="#96637c" d="M518.303 113.135l13.805-3.446 10.911 4.143-13.218 4.857z"/><path fill="#785d88" d="M549.845 111.324l-2.303 33.314-18.096 6.06-1.951-19.365 2.306-13.708z"/><path fill="#8e75a1" d="M512.682 110.42l17.119 7.205-.355 33.073-21.111-8.938z"/><path fill="#fff" d="M812.762 56.823l9.935 8.515-8.87 9.935 1.774 3.193 10.644-13.66-10.467-12.064z"/><path fill="#fff" d="M818.794 48.839l14.015 14.37-10.999 15.434 2.129 2.307 14.192-18.805-16.144-17.741zM718.857 60.652l-9.112 9.39 9.743 9.08-1.474 3.343-11.851-12.628 9.317-12.971z"/><path fill="#fff" d="M712.12 53.255l-12.64 15.594 12.367 14.361-1.908 2.492-15.856-17.426 14.451-19.145z"/></g><g><path opacity=".2" fill-rule="evenodd" clip-rule="evenodd" fill="#2b2b2b" d="M548.09 238.47l-9.42 5.626 69.188 11.98 36.757-3.396 15.579-28.957v-15.929l-63.769 4.335z"/><path fill-rule="evenodd" clip-rule="evenodd" fill="#96637c" d="M544.755 230.147l35.784-54.02 72.976-4.612-23.214 52.246z"/><path fill-rule="evenodd" clip-rule="evenodd" fill="#fff" d="M630.301 221.632l3.688 16.099-1.832 16.1-86.034-9.7-1.368-13.984z"/><path fill-rule="evenodd" clip-rule="evenodd" fill="#c4c4c4" d="M653.515 171.515l6.679 36.279-28.037 46.037-1.856-32.199z"/><path fill-rule="evenodd" clip-rule="evenodd" fill="#999" d="M643.607 215.467l-12.723 16.274-16.549 2.797 16.806 1.662zM655.721 183.495l-17.508 31.218 18.209-27.409z"/><ellipse transform="rotate(-10.068 598.3562061 209.69940225)" cx="598.431" cy="209.639" rx="9.53" ry="5.097" clip-rule="evenodd" fill="none" stroke="#704c5f" stroke-width="5" stroke-miterlimit="10"/><ellipse transform="rotate(-10.068 592.6845017 195.25438653)" cx="592.758" cy="195.193" rx="4.881" ry="2.61" clip-rule="evenodd" fill="none" stroke="#704c5f" stroke-width="3" stroke-miterlimit="10"/><ellipse transform="rotate(-10.068 572.7712484 212.18590284)" cx="572.845" cy="212.129" rx="4.881" ry="2.61" clip-rule="evenodd" fill="none" stroke="#704c5f" stroke-width="3" stroke-miterlimit="10"/><ellipse transform="rotate(-10.068 621.31230003 197.25592112)" cx="621.388" cy="197.192" rx="4.881" ry="2.61" clip-rule="evenodd" fill="none" stroke="#704c5f" stroke-width="3" stroke-miterlimit="10"/><path clip-rule="evenodd" fill="none" stroke="#704c5f" stroke-width="2" stroke-miterlimit="10" d="M593.214 197.764l2.163 6.857M589.048 211.304l-11.397-.028M607.037 206.464l10.955-6.564"/><path fill="none" stroke="#704c5f" stroke-miterlimit="10" d="M603.424 183.046l28.74-2.927M601.828 186.506l18.361-1.331"/></g></svg>